<svg width="24" height="24" viewBox="0 0 24 24" fill="none" xmlns="http://www.w3.org/2000/svg">
<circle cx="12" cy="12" r="12" fill="#717171"/>
<circle cx="12" cy="10.1538" r="5.53846" fill="white"/>
<path d="M20.3659 20.0989C19.6465 18.556 18.5144 17.2422 17.0948 16.3026C15.6752 15.363 14.0235 14.8343 12.3222 14.7749C10.6208 14.7154 8.93621 15.1277 7.45456 15.9659C5.9729 16.8042 4.75191 18.0359 3.92659 19.5248L12 24L20.3659 20.0989Z" fill="white"/>
<path d="M23 12C23 14.9174 21.8411 17.7153 19.7782 19.7782C17.7153 21.8411 14.9174 23 12 23C9.08262 23 6.28473 21.8411 4.22183 19.7782C2.15893 17.7153 1 14.9174 1 12" stroke="#717171" stroke-width="2"/>
</svg>
