<svg width="26" height="26" viewBox="0 0 26 26" fill="none" xmlns="http://www.w3.org/2000/svg">
<rect width="26" height="26" rx="4" fill="#F55A5A"/>
<path fill-rule="evenodd" clip-rule="evenodd" d="M20.8649 18.2C20.7357 18.0799 20.6376 17.9553 20.6044 17.84C20.4739 17.383 20.646 16.0548 20.9048 15.6401C21.1628 15.2239 20.877 13.975 20.7926 13.7683C20.7058 13.5604 20.6767 13.2906 20.3805 13.3724C20.0826 13.4558 19.4132 13.4247 18.8078 13.3002C18.2008 13.1768 17.6723 12.5921 17.5514 11.9328C17.416 11.1937 17.416 10.4757 17.5888 10.0255C17.782 9.5194 18.2577 9.32783 18.6932 9.08917C18.8938 8.97981 19.8644 8.82496 19.8279 8.358C19.6023 7.92776 17.5418 8.41707 17.4592 7.74856C17.3756 7.07886 17.3461 6.74281 17.6075 6.20401C17.8817 5.64207 17.5664 5.7171 17.4907 5.03583C17.4804 4.93884 17.6952 4.6882 17.7122 4.6C18.4231 5.0043 19.0908 5.48762 19.6899 6.06313C21.5667 7.8667 22.6 10.2645 22.6 12.8152C22.6 14.7669 21.9905 16.6255 20.8649 18.2M16.4437 17.8971C16.034 18.5476 16.1325 19.0268 15.1978 19.5241C14.6772 19.8014 14.3068 19.88 14.0314 20.6248C13.7548 21.368 13.2962 21.3418 12.1513 21.9456C11.0047 22.5509 10.5493 21.9456 10.4559 21.4813C10.3629 21.017 10.6455 19.9203 10.6455 19.9203C10.6455 19.9203 10.7575 19.5927 9.94521 19.2227C7.89098 18.2872 9.66344 15.0029 9.66344 15.0029C9.19926 14.4596 8.02053 13.394 6.37484 13.045C4.80148 12.7121 4.3528 11.7887 3.8 10.867C4.20457 9.16055 5.05464 7.59235 6.30967 6.31877C8.10479 4.49786 10.4909 3.4 13.0315 3.4C13.0315 3.4 13.8883 3.4 14.6971 3.6124C13.9575 4.42653 13.1301 5.24952 12.5153 5.47643C11.4085 5.88752 10.8954 6.56099 10.8907 7.27839C10.8883 7.64999 11.6577 8.32345 11.6577 9.17547C11.6577 10.6236 10.595 10.657 10.471 10.0468C10.1912 8.66281 9.12097 9.0203 7.83931 9.15894C6.55567 9.29879 5.77793 10.8102 6.60216 11.4147C7.42799 12.0193 7.38547 11.2237 7.703 10.9968C8.01894 10.7695 8.24229 10.6796 8.48233 10.9968C8.72038 11.314 9.23662 11.4865 9.18694 12.1374C9.14363 12.7879 9.00453 13.3448 9.87685 13.3448C10.748 13.3448 10.7782 13.5391 11.331 13.8176C11.8782 14.0965 12.3965 14.0441 12.8531 14.1376C13.3117 14.2299 13.9126 15.1279 13.9126 15.1279C15.2125 15.5539 15.6401 15.728 15.999 16.0907C16.3567 16.4534 16.8582 17.2462 16.4437 17.8971M12.9986 1H12.9954H12.9922C8.23149 1 4.13019 3.7812 2.19038 7.8C1.43014 9.3748 1 11.1344 1 13C0.9992 19.6264 6.3653 25 12.9938 25H12.997H13.0002C19.6263 25 25.0008 19.6264 25 13.0016C25.0008 6.314 19.5467 1 12.9986 1" fill="white"/>
</svg>
